<svg width="42" height="42" viewBox="0 0 22 22" fill="none" xmlns="http://www.w3.org/2000/svg">
<path d="M20.9 2.2H18.7V1.65C18.7 0.738848 17.9612 0 17.05 0C16.1388 0 15.4 0.738848 15.4 1.65V2.2H6.6V1.65C6.6 0.738848 5.86115 0 4.95 0C4.03885 0 3.3 0.738848 3.3 1.65V2.2H1.1C0.492422 2.2 0 2.69242 0 3.3V20.9C0 21.5076 0.492422 22 1.1 22H20.9C21.5076 22 22 21.5076 22 20.9V3.3C22 2.69242 21.5076 2.2 20.9 2.2ZM16.5 1.65C16.5 1.34677 16.7468 1.1 17.05 1.1C17.3532 1.1 17.6 1.34677 17.6 1.65V2.2H16.5V1.65ZM4.4 1.65C4.4 1.34677 4.64677 1.1 4.95 1.1C5.25323 1.1 5.5 1.34677 5.5 1.65V2.2H4.4V1.65ZM5.225 20.9H1.1V17.2333H5.225V20.9ZM5.225 16.1333H1.1V12.4667H5.225V16.1333ZM5.225 11.3667H1.1V7.7H5.225V11.3667ZM10.45 20.9H6.325V17.2333H10.45V20.9ZM10.45 16.1333H6.325V12.4667H10.45V16.1333ZM10.45 11.3667H6.325V7.7H10.45V11.3667ZM15.675 20.9H11.55V17.2333H15.675V20.9ZM15.675 16.1333H11.55V12.4667H15.675V16.1333ZM15.675 11.3667H11.55V7.7H15.675V11.3667ZM20.9 20.9H16.775V17.2333H20.9V20.9ZM20.9 16.1333H16.775V12.4667H20.9V16.1333ZM20.9 11.3667H16.775V7.7H20.9V11.3667ZM20.9 6.6H1.1V3.3H20.9V6.6Z" fill="#00664F"/>
</svg>
